<svg width="273" height="75" viewBox="0 0 273 75" fill="none" xmlns="http://www.w3.org/2000/svg">
<g clip-path="url(#clip0_403_1850)">
<path d="M37.4877 75C58.2639 75 75.1063 58.2108 75.1063 37.5C75.1063 16.7893 58.2639 0 37.4877 0C17.7764 0 1.60596 15.1122 0 34.3479H49.7232V40.6521H2.70061e-07C1.60597 59.8877 17.7764 75 37.4877 75Z" fill="black"/>
<path d="M93.8828 65.575H116.215C126.185 65.575 133.284 59.6811 133.284 50.0439C133.284 42.5572 128.977 37.7783 121.958 36.4243V36.1855C127.86 34.7518 131.529 30.4508 131.529 23.9996C131.529 15.0791 124.909 9.50391 115.418 9.50391H93.8828V65.575ZM125.547 24.7164C125.547 30.4508 121.4 34.1146 114.62 34.1146H99.8648V14.6013H114.62C121.4 14.6013 125.547 18.1853 125.547 23.92V24.7164ZM127.302 50.2032C127.302 56.4156 122.756 60.4775 115.338 60.4775H99.8648V39.0526H115.258C122.676 39.0526 127.302 42.9554 127.302 49.4068V50.2032Z" fill="black"/>
<path d="M175.209 65.575H181.59L162.926 9.50391H155.668L137.244 65.575H143.305L148.091 50.3624H170.423L175.209 65.575ZM159.098 15.6367H159.576L168.908 45.3449H149.686L159.098 15.6367Z" fill="black"/>
<path d="M206.766 66.6905C219.049 66.6905 227.104 60.0797 227.104 50.1239C227.104 40.8849 221.043 36.5044 211.87 34.991L203.735 33.637C197.514 32.6018 193.366 29.8938 193.366 23.9203C193.366 17.8671 197.992 13.2476 206.766 13.2476C215.3 13.2476 219.687 17.5486 220.165 23.6813H226.307C225.828 15.5574 219.607 8.30957 206.845 8.30957C194.243 8.30957 187.304 15.3981 187.304 24.1592C187.304 33.4779 193.606 37.7787 202.22 39.2124L210.435 40.4867C217.294 41.6815 221.122 44.4689 221.122 50.3627C221.122 57.292 215.46 61.7522 206.845 61.7522C197.912 61.7522 192.329 57.4514 191.851 50.1239H185.789C186.268 59.6815 193.606 66.6905 206.766 66.6905Z" fill="black"/>
<path d="M236.089 9.50391V65.575H272.14V60.3978H242.072V39.0526H269.746V33.9554H242.072V14.6809H272.14V9.50391H236.089Z" fill="black"/>
</g>
<defs>
<clipPath id="clip0_403_1850">
<rect width="272.26" height="75" fill="white"/>
</clipPath>
</defs>
</svg>
