<svg width="2000" height="280" viewBox="0 0 2000 280" fill="none" xmlns="http://www.w3.org/2000/svg">
<path d="M100.988 269.3C71.3148 269.3 47.0029 262.319 28.0521 248.355C9.35071 234.141 0 213.944 0 187.763C0 182.276 0.62338 175.544 1.87015 167.565C5.11172 149.612 9.72473 128.042 15.7092 102.858C32.6652 34.286 76.4265 0 146.993 0C166.193 0 183.399 3.24159 198.609 9.72475C213.82 15.9585 225.788 25.434 234.516 38.1509C243.243 50.6185 247.607 65.5797 247.607 83.0343C247.607 88.2708 246.984 94.8785 245.737 102.858C241.996 125.05 237.508 146.619 232.272 167.565C223.544 201.727 208.459 227.285 187.015 244.24C165.569 260.947 136.895 269.3 100.988 269.3ZM106.224 215.44C120.188 215.44 132.032 211.327 141.757 203.097C151.731 194.869 158.837 182.276 163.076 165.32C168.812 141.881 173.175 121.435 176.168 103.98C177.165 98.7436 177.664 93.3824 177.664 87.8967C177.664 65.2056 165.819 53.8601 142.131 53.8601C128.167 53.8601 116.198 57.9744 106.224 66.2031C96.4993 74.4317 89.5175 87.024 85.2785 103.98C80.7901 120.687 76.3019 141.133 71.8135 165.32C70.816 170.308 70.3173 175.544 70.3173 181.029C70.3173 203.971 82.2863 215.44 106.224 215.44Z" fill="#FF0420"/>
<path d="M285.56 265.56C282.816 265.56 280.697 264.688 279.201 262.943C277.955 260.947 277.58 258.703 278.079 256.209L329.695 13.091C330.193 10.3481 331.565 8.10391 333.809 6.35845C336.053 4.61298 338.423 3.74023 340.916 3.74023H440.407C468.085 3.74023 490.277 9.47534 506.984 20.9456C523.94 32.4158 532.419 48.9977 532.419 70.6913C532.419 76.9252 531.671 83.4084 530.175 90.1409C523.94 118.816 511.348 140.011 492.397 153.725C473.696 167.44 448.012 174.297 415.347 174.297H364.853L347.648 256.209C347.149 258.952 345.777 261.196 343.533 262.943C341.289 264.688 338.921 265.56 336.427 265.56H285.56ZM417.965 122.681C428.439 122.681 437.54 119.814 445.269 114.079C453.249 108.344 458.485 100.115 460.979 89.3928C461.727 85.1538 462.101 81.4136 462.101 78.172C462.101 70.9408 459.981 65.4549 455.743 61.7146C451.504 57.725 444.272 55.7302 434.049 55.7302H389.165L374.952 122.681H417.965Z" fill="#FF0420"/>
<path d="M616.692 265.56C613.949 265.56 611.829 264.688 610.333 262.943C608.837 260.947 608.339 258.703 608.837 256.209L650.355 62.4628H583.777C581.035 62.4628 578.915 61.59 577.419 59.8445C576.172 57.8497 575.799 55.6056 576.297 53.112L584.9 13.091C585.399 10.3481 586.769 8.10391 589.013 6.35845C591.257 4.61298 593.627 3.74023 596.12 3.74023H797.348C800.091 3.74023 802.209 4.61298 803.707 6.35845C804.704 7.85455 805.203 9.35066 805.203 10.8468C805.203 11.5948 805.077 12.3429 804.828 13.091L796.225 53.112C795.727 55.8549 794.356 58.099 792.111 59.8445C790.116 61.59 787.748 62.4628 785.005 62.4628H718.801L677.284 256.209C676.785 258.952 675.415 261.196 673.171 262.943C670.925 264.688 668.557 265.56 666.064 265.56H616.692Z" fill="#FF0420"/>
<path d="M814.743 265.56C812 265.56 809.881 264.688 808.385 262.943C806.888 260.947 806.389 258.703 806.888 256.209L858.879 13.091C859.377 10.3481 860.749 8.10391 862.993 6.35845C865.237 4.61298 867.605 3.74023 870.1 3.74023H920.593C923.336 3.74023 925.456 4.61298 926.952 6.35845C927.949 7.85455 928.448 9.35066 928.448 10.8468C928.448 11.5948 928.323 12.3429 928.073 13.091L876.457 256.209C875.959 258.952 874.588 261.196 872.344 262.943C870.1 264.688 867.731 265.56 865.237 265.56H814.743Z" fill="#FF0420"/>
<path d="M957.164 265.56C954.421 265.56 952.301 264.688 950.805 262.943C949.309 261.196 948.811 258.952 949.309 256.209L1000.93 13.091C1001.42 10.3481 1002.79 8.10391 1005.04 6.35845C1007.28 4.61298 1009.78 3.74023 1012.52 3.74023H1052.91C1058.9 3.74023 1062.76 6.48311 1064.51 11.9689L1105.28 129.788L1196.17 11.9689C1197.41 9.97405 1199.16 8.10391 1201.4 6.35845C1203.9 4.61298 1206.89 3.74023 1210.38 3.74023H1251.15C1253.89 3.74023 1256.01 4.61298 1257.51 6.35845C1258.51 7.85455 1259.01 9.35066 1259.01 10.8468C1259.01 11.5948 1258.88 12.3429 1258.63 13.091L1207.01 256.209C1206.52 258.952 1205.14 261.196 1202.9 262.943C1200.66 264.688 1198.29 265.56 1195.79 265.56H1150.54C1147.79 265.56 1145.67 264.688 1144.18 262.943C1142.93 260.947 1142.56 258.703 1143.06 256.209L1172.23 118.193L1115 194.121C1112.51 196.864 1110.14 198.983 1107.9 200.479C1105.65 201.976 1103.03 202.724 1100.04 202.724H1080.59C1075.36 202.724 1071.74 199.856 1069.75 194.121L1043.19 114.827L1013.27 256.209C1012.77 258.952 1011.4 261.196 1009.15 262.943C1006.91 264.688 1004.54 265.56 1002.05 265.56H957.164Z" fill="#FF0420"/>
<path d="M1287.31 265.56C1284.57 265.56 1282.45 264.688 1280.95 262.943C1279.46 260.947 1278.96 258.703 1279.46 256.209L1331.45 13.091C1331.95 10.3481 1333.32 8.10391 1335.56 6.35845C1337.8 4.61298 1340.17 3.74023 1342.67 3.74023H1393.16C1395.91 3.74023 1398.03 4.61298 1399.52 6.35845C1400.52 7.85455 1401.01 9.35066 1401.01 10.8468C1401.01 11.5948 1400.89 12.3429 1400.64 13.091L1349.03 256.209C1348.53 258.952 1347.16 261.196 1344.91 262.943C1342.67 264.688 1340.29 265.56 1337.8 265.56H1287.31Z" fill="#FF0420"/>
<path d="M1522.12 269.3C1500.17 269.3 1481.35 266.308 1465.64 260.324C1450.17 254.34 1438.45 246.36 1430.48 236.387C1422.75 226.412 1418.88 215.316 1418.88 203.097C1418.88 201.103 1419.13 198.111 1419.63 194.121C1420.13 191.876 1421.13 190.007 1422.63 188.511C1424.37 187.015 1426.36 186.267 1428.61 186.267H1476.48C1479.48 186.267 1481.72 186.765 1483.21 187.763C1484.96 188.76 1486.71 190.505 1488.45 192.999C1490.2 199.481 1494.19 204.843 1500.43 209.081C1506.91 213.321 1515.76 215.44 1526.97 215.44C1541.19 215.44 1552.67 213.196 1561.39 208.708C1570.12 204.22 1575.36 198.111 1577.09 190.38C1577.35 189.383 1577.47 187.887 1577.47 185.892C1577.47 179.659 1573.61 174.796 1565.88 171.305C1558.15 167.565 1543.93 163.201 1523.24 158.215C1499.05 152.977 1480.72 145.123 1468.25 134.651C1455.79 123.928 1449.56 109.964 1449.56 92.7591C1449.56 86.7747 1450.31 80.6655 1451.8 74.4317C1456.79 51.2419 1469.13 33.0392 1488.83 19.8235C1508.77 6.60784 1534.45 0 1565.88 0C1584.83 0 1601.67 3.36625 1616.37 10.0988C1631.08 16.8313 1642.43 25.434 1650.41 35.9068C1658.64 46.1301 1662.75 56.3536 1662.75 66.5771C1662.75 69.5693 1662.63 71.6888 1662.37 72.9356C1661.88 75.1797 1660.76 77.0499 1659.01 78.546C1657.52 80.0421 1655.64 80.7901 1653.4 80.7901H1603.28C1597.8 80.7901 1594.05 78.6707 1592.07 74.4317C1591.81 68.6965 1588.81 63.8343 1583.08 59.8445C1577.35 55.8549 1569.87 53.8601 1560.64 53.8601C1549.67 53.8601 1540.57 55.8549 1533.33 59.8445C1526.36 63.8343 1521.99 69.694 1520.25 77.4239C1520 78.6707 1519.87 80.2915 1519.87 82.2863C1519.87 88.2707 1523.36 93.2577 1530.35 97.2475C1537.57 100.988 1550.17 104.853 1568.12 108.842C1596.05 114.328 1616.37 122.183 1629.09 132.406C1642.05 142.629 1648.53 156.219 1648.53 173.175C1648.53 178.911 1647.79 185.144 1646.29 191.876C1640.81 217.311 1627.47 236.636 1606.27 249.851C1585.33 262.817 1557.28 269.3 1522.12 269.3Z" fill="#FF0420"/>
<path d="M1698.16 265.56C1695.41 265.56 1693.29 264.688 1691.8 262.943C1690.31 261.196 1689.8 258.952 1690.31 256.209L1741.92 13.091C1742.41 10.3481 1743.79 8.10391 1746.04 6.35845C1748.28 4.61298 1750.77 3.74023 1753.52 3.74023H1793.91C1799.89 3.74023 1803.76 6.48311 1805.51 11.9689L1846.28 129.788L1937.16 11.9689C1938.41 9.97405 1940.16 8.10391 1942.4 6.35845C1944.89 4.61298 1947.88 3.74023 1951.37 3.74023H1992.15C1994.89 3.74023 1997.01 4.61298 1998.51 6.35845C1999.51 7.85455 2000 9.35066 2000 10.8468C2000 11.5948 1999.88 12.3429 1999.63 13.091L1948.01 256.209C1947.51 258.952 1946.13 261.196 1943.89 262.943C1941.65 264.688 1939.28 265.56 1936.79 265.56H1891.53C1888.79 265.56 1886.67 264.688 1885.17 262.943C1883.92 260.947 1883.55 258.703 1884.05 256.209L1913.23 118.193L1856 194.121C1853.51 196.864 1851.13 198.983 1848.89 200.479C1846.65 201.976 1844.03 202.724 1841.04 202.724H1821.59C1816.35 202.724 1812.73 199.856 1810.75 194.121L1784.19 114.827L1754.27 256.209C1753.76 258.952 1752.39 261.196 1750.15 262.943C1747.91 264.688 1745.53 265.56 1743.04 265.56H1698.16Z" fill="#FF0420"/>
</svg>
