<svg width="1982" height="321" viewBox="0 0 1982 321" fill="none" xmlns="http://www.w3.org/2000/svg">
<g style="mix-blend-mode:screen">
<path fill-rule="evenodd" clip-rule="evenodd" d="M956.582 28C940.29 28 926.931 41.2034 926.931 58.0377C926.931 74.542 940.29 87.7454 956.582 87.7454C972.874 87.7454 986.233 74.542 986.233 58.0377C986.233 41.2034 972.874 28 956.582 28ZM982.649 102.928H930.84V280.844H982.649V102.928ZM628.461 34.602H678.966V102.93H717.741V150.462H678.966V213.178C678.966 222.42 686.134 229.682 694.932 229.682H717.415V280.185H694.932C658.438 280.185 628.461 250.147 628.461 212.848V150.132H605V102.6H628.461V34.602ZM841.234 98.9686C817.774 98.9686 799.201 108.871 792.032 124.385V34.602H740.224V280.515H792.032V180.83C792.032 160.034 805.392 145.511 824.291 145.511C843.515 145.511 854.268 158.054 854.268 179.179V280.845H906.076V172.577C906.076 126.366 882.616 98.9686 841.234 98.9686ZM1056.61 102.6V127.026C1064.43 109.201 1083.33 98.9686 1107.12 98.6385C1110.7 98.6385 1115.26 98.9686 1120.8 99.6288V149.141C1115.59 148.151 1109.72 147.491 1103.53 147.491C1073.88 147.491 1056.61 164.325 1056.61 193.703V280.515H1004.8V102.6H1056.61ZM1266.46 126.036C1261.24 110.522 1240.71 99.6288 1214.32 99.6288C1189.56 99.6288 1168.7 108.541 1152.09 126.366C1135.79 143.86 1127.32 165.976 1127.32 191.722C1127.32 217.469 1135.79 239.255 1152.09 257.409C1168.7 274.904 1189.56 283.816 1214.32 283.816C1240.71 283.816 1261.24 272.923 1266.46 257.409V280.845H1318.26V34.602H1266.46V126.036ZM1256.03 223.411C1247.23 231.993 1236.48 235.954 1223.77 235.954C1211.39 235.954 1200.64 231.663 1192.16 223.411C1183.37 214.498 1179.13 203.936 1179.13 191.722C1179.13 179.509 1183.37 168.947 1192.16 160.364C1200.96 151.452 1211.39 147.161 1223.77 147.161C1236.8 147.161 1247.56 151.452 1256.03 160.364C1265.15 168.947 1269.71 179.509 1269.71 191.722C1269.71 203.936 1265.15 214.498 1256.03 223.411ZM1467.82 103.589L1514.74 188.09L1546.35 102.928H1597.18L1524.85 291.077L1467.82 188.751L1410.8 291.077L1338.79 102.928H1389.62L1420.9 188.09L1467.82 103.589ZM1682.55 98.6385C1655.83 98.6385 1633.35 107.221 1615.76 124.385C1598.49 141.219 1589.69 163.665 1589.69 191.392V193.043C1589.69 220.77 1598.49 243.216 1615.76 260.05C1633.68 276.554 1656.49 285.136 1685.16 285.136C1711.88 285.136 1733.71 279.855 1750.33 268.962V223.08C1734.04 234.633 1713.18 240.245 1688.09 240.245C1660.72 240.245 1642.8 226.711 1641.82 205.586H1770.53C1771.18 200.305 1771.51 194.363 1771.51 188.422C1771.51 163.005 1763.03 141.88 1746.74 124.715C1730.45 107.221 1708.62 98.6385 1682.55 98.6385ZM1641.82 171.587C1642.15 163.335 1646.38 156.403 1654.2 150.792C1662.35 145.18 1671.47 142.21 1682.55 142.21C1703.08 142.21 1719.05 155.743 1719.05 171.587H1641.82ZM1895 99.6288C1919.76 99.6288 1940.62 108.541 1956.91 126.366C1973.53 144.19 1982 165.646 1982 191.392C1982 217.139 1973.53 238.925 1956.91 257.079C1940.62 274.574 1919.76 283.486 1895 283.486C1868.61 283.486 1848.08 272.593 1842.87 257.079V280.515H1791.06V34.602H1842.87V126.036C1848.08 110.522 1868.61 99.6288 1895 99.6288ZM1885.55 235.954C1897.93 235.954 1908.36 231.993 1917.16 223.411C1925.95 214.498 1930.19 203.936 1930.19 191.722C1930.19 179.509 1925.95 168.947 1917.16 160.364C1908.69 151.452 1897.93 147.161 1885.55 147.161C1872.84 147.161 1862.09 151.452 1852.97 160.364C1844.17 168.947 1839.61 179.509 1839.61 191.722C1839.61 203.936 1844.17 214.498 1852.97 223.411C1861.76 231.663 1872.52 235.954 1885.55 235.954Z" fill="white"/>
</g>
<g clip-path="url(#clip0_2_8)">
<path d="M1.40497 27.0011C-3.73633 14.022 5.84519 0 19.8669 0H106.919C115.098 0 122.342 4.86715 125.381 12.3996L194.671 185.299C196.541 189.935 196.541 195.149 194.671 199.901L151.087 308.484C144.427 325.056 120.823 325.056 114.163 308.484L1.40497 27.0011Z" fill="url(#paint0_linear_2_8)"/>
<path d="M169.547 26.4217C164.873 13.5585 174.454 0 188.242 0H264.077C272.49 0 279.968 5.2148 282.772 12.9791L345.753 185.879C347.272 190.166 347.272 194.918 345.753 199.321L307.894 303.27C301.585 320.652 276.813 320.652 270.503 303.27L169.547 26.4217Z" fill="url(#paint1_linear_2_8)"/>
<path d="M321.331 27.0011C316.19 14.022 325.771 0 339.793 0H426.845C435.024 0 442.269 4.86715 445.307 12.3996L514.597 185.299C516.467 189.935 516.467 195.149 514.597 199.901L471.013 308.484C464.353 325.056 440.75 325.056 434.089 308.484L321.331 27.0011Z" fill="url(#paint2_linear_2_8)"/>
</g>
<defs>
<linearGradient id="paint0_linear_2_8" x1="7.40492" y1="55.24" x2="260.485" y2="164.437" gradientUnits="userSpaceOnUse">
<stop stop-color="#F213A4"/>
<stop offset="0.1517" stop-color="#E011A7"/>
<stop offset="0.4554" stop-color="#B20DAF"/>
<stop offset="0.8789" stop-color="#6806BB"/>
<stop offset="1" stop-color="#5204BF"/>
</linearGradient>
<linearGradient id="paint1_linear_2_8" x1="175.093" y1="54.447" x2="410.968" y2="148.471" gradientUnits="userSpaceOnUse">
<stop stop-color="#F213A4"/>
<stop offset="0.1517" stop-color="#E011A7"/>
<stop offset="0.4554" stop-color="#B20DAF"/>
<stop offset="0.8789" stop-color="#6806BB"/>
<stop offset="1" stop-color="#5204BF"/>
</linearGradient>
<linearGradient id="paint2_linear_2_8" x1="327.331" y1="55.24" x2="580.411" y2="164.437" gradientUnits="userSpaceOnUse">
<stop stop-color="#F213A4"/>
<stop offset="0.1517" stop-color="#E011A7"/>
<stop offset="0.4554" stop-color="#B20DAF"/>
<stop offset="0.8789" stop-color="#6806BB"/>
<stop offset="1" stop-color="#5204BF"/>
</linearGradient>
<clipPath id="clip0_2_8">
<rect width="516" height="321" fill="white"/>
</clipPath>
</defs>
</svg>
