<svg width="4422" height="753" viewBox="0 0 4422 753" fill="none" xmlns="http://www.w3.org/2000/svg">
<mask id="mask0_1017_16" style="mask-type:luminance" maskUnits="userSpaceOnUse" x="0" y="0" width="4422" height="753">
<path d="M4421.46 0H0V753H4421.46V0Z" fill="white"/>
</mask>
<g mask="url(#mask0_1017_16)">
<path d="M1617.33 233.251C1696.19 233.251 1760.6 297.644 1760.6 376.493C1760.6 455.339 1696.19 519.732 1617.33 519.732C1538.47 519.732 1474.07 455.339 1474.07 376.493C1474.07 297.644 1537.81 233.251 1617.33 233.251ZM1617.33 164.259C1500.36 164.259 1405.07 259.533 1405.07 376.493C1405.07 493.45 1500.36 588.726 1617.33 588.726C1734.31 588.726 1829.6 493.45 1829.6 376.493C1829.6 258.876 1734.31 164.259 1617.33 164.259Z" fill="black"/>
<path d="M3673.61 233.251C3752.47 233.251 3816.88 297.644 3816.88 376.493C3816.88 455.339 3752.47 519.732 3673.61 519.732C3594.76 519.732 3530.35 455.339 3530.35 376.493C3530.35 297.644 3594.76 233.251 3673.61 233.251ZM3673.61 164.259C3556.64 164.259 3461.36 259.533 3461.36 376.493C3461.36 493.45 3556.64 588.726 3673.61 588.726C3790.59 588.726 3885.89 493.45 3885.89 376.493C3885.89 258.876 3791.25 164.259 3673.61 164.259Z" fill="black"/>
<path d="M3353.56 425.772C3333.18 480.967 3280.61 519.732 3218.84 519.732C3139.98 519.732 3075.57 455.339 3075.57 376.493C3075.57 297.644 3139.98 233.251 3218.84 233.251C3280.61 233.251 3333.18 272.675 3353.56 327.211H3425.19C3403.49 233.908 3319.39 164.259 3218.84 164.259C3101.86 164.259 3006.58 259.533 3006.58 376.493C3006.58 493.45 3101.86 588.726 3218.84 588.726C3319.39 588.726 3403.49 519.075 3425.19 425.772H3353.56Z" fill="black"/>
<path d="M2758.15 239.87C2835.05 239.87 2897.48 304.261 2894.85 381.796C2892.21 456.045 2829.12 513.209 2754.88 513.209H2679.3V239.87H2758.15ZM2758.15 170.877H2610.3V582.2H2758.15C2871.86 582.2 2963.84 490.212 2963.84 376.54C2963.84 262.867 2871.86 170.877 2758.15 170.877Z" fill="black"/>
<path d="M4005.51 171.521H3936.49V581.53H4005.51V171.521Z" fill="black"/>
<path d="M1037.04 583.45L1115.25 281.857L1193.45 583.45H1288.08L1395.2 169.498H1324.23L1240.77 490.805L1157.31 169.498H1073.19L989.728 490.805L906.268 169.498H835.293L942.413 583.45H1037.04Z" fill="black"/>
<path d="M4143.48 289.806L4352.46 581.544H4360.35H4421.46V171.534H4352.46V463.271L4143.48 170.877H4138.2L4137.55 171.534H4074.46V581.544H4143.48V289.806Z" fill="black"/>
<path d="M2340.84 171.521H2271.84V581.53H2559.68V512.539H2340.84V171.521Z" fill="black"/>
<path d="M2139.14 412.651C2181.2 391.626 2210.12 348.914 2210.12 298.978C2210.12 228.672 2152.94 172.164 2083.28 172.164H1953.16H1882.19V426.45V582.175H1953.16V425.793H1992.59C2076.71 428.422 2143.74 496.756 2143.74 581.518H2214.72C2215.37 514.496 2185.8 454.047 2139.14 412.651ZM1953.16 354.83V242.47H2083.28C2114.17 242.47 2139.14 267.44 2139.14 298.322C2139.14 329.204 2114.17 354.83 2083.28 354.83H1953.16Z" fill="black"/>
<path d="M722.889 229.974C703.833 185.293 676.888 145.212 642.057 110.387C607.227 75.5628 567.797 48.6231 523.11 29.568C476.451 9.85602 427.163 0 376.56 0C325.3 0 276.013 9.85602 230.01 29.568C185.323 48.6231 145.235 75.5628 110.405 110.387C75.5749 145.212 48.6308 185.293 29.5728 229.974C9.85759 275.967 0 325.249 0 376.5C0 427.095 9.85759 476.374 29.5728 523.027C48.6308 567.708 75.5749 607.789 110.405 642.613C145.235 677.436 185.323 704.377 230.01 722.774C276.669 742.486 325.957 752.343 376.56 752.343C427.163 752.343 476.451 742.486 523.11 722.774C567.797 703.721 607.884 676.78 642.715 641.956C677.545 607.13 704.489 567.049 723.548 522.368C743.263 475.717 753.12 426.438 753.12 375.843C753.12 325.249 742.606 275.967 722.889 229.974ZM251.697 341.017C266.812 280.568 322.015 236.546 387.074 236.546H648.629C665.716 268.741 676.23 304.221 680.174 341.017H251.697ZM680.174 411.983C676.23 448.779 665.059 484.259 648.629 516.454H387.074C322.015 516.454 267.468 471.776 251.697 411.983H680.174ZM160.35 160.325C218.181 102.503 295.071 70.9634 376.56 70.9634C458.049 70.9634 534.939 102.503 592.769 160.325C594.741 162.296 596.056 163.61 598.026 165.581H387.074C330.558 165.581 277.985 187.264 237.896 227.346C206.352 258.884 185.98 298.308 179.408 341.017H72.9461C80.8321 272.682 111.062 209.605 160.35 160.325ZM376.56 682.037C295.071 682.037 218.181 650.498 160.35 592.675C111.062 543.395 80.8321 479.659 72.9461 411.983H179.408C186.637 454.692 207.009 494.116 237.896 525.655C277.985 565.736 330.558 587.418 387.074 587.418H598.026C596.056 589.39 594.741 590.705 592.769 592.675C534.939 650.498 458.049 682.037 376.56 682.037Z" fill="black"/>
</g>
</svg>
