<svg width="13726" height="3234" viewBox="0 0 13726 3234" fill="none" xmlns="http://www.w3.org/2000/svg">
<mask id="mask0_385_260" style="mask-type:alpha" maskUnits="userSpaceOnUse" x="0" y="0" width="3234" height="3234">
<path d="M1617 3234C2510.04 3234 3234 2510.04 3234 1617C3234 723.956 2510.04 0 1617 0C723.956 0 0 723.956 0 1617C0 2510.04 723.956 3234 1617 3234Z" fill="#D9D9D9"/>
</mask>
<g mask="url(#mask0_385_260)">
<path d="M3782 -703H-499V3578H3782V-703Z" fill="#A1723A"/>
<g filter="url(#filter0_f_385_260)">
<path d="M1740.5 3166C2693.47 3166 3466 2393.69 3466 1441C3466 488.309 2693.47 -284 1740.5 -284C787.533 -284 15 488.309 15 1441C15 2393.69 787.533 3166 1740.5 3166Z" fill="#531002"/>
</g>
<g filter="url(#filter1_f_385_260)">
<path d="M1926.5 2620C2699.42 2620 3326 1993.2 3326 1220C3326 446.801 2699.42 -180 1926.5 -180C1153.58 -180 527 446.801 527 1220C527 1993.2 1153.58 2620 1926.5 2620Z" fill="#2B5DF0"/>
</g>
<g filter="url(#filter2_f_385_260)">
<path d="M1901 2700C2706.78 2700 3360 2046.56 3360 1240.5C3360 434.44 2706.78 -219 1901 -219C1095.22 -219 442 434.44 442 1240.5C442 2046.56 1095.22 2700 1901 2700Z" fill="url(#paint0_radial_385_260)"/>
</g>
<g filter="url(#filter3_f_385_260)">
<path d="M2143 1608C2548.93 1608 2878 1278.93 2878 873C2878 467.071 2548.93 138 2143 138C1737.07 138 1408 467.071 1408 873C1408 1278.93 1737.07 1608 2143 1608Z" fill="#FCB8D4"/>
</g>
<g filter="url(#filter4_f_385_260)">
<path d="M2142.5 1166C2304.6 1166 2436 1034.6 2436 872.5C2436 710.404 2304.6 579 2142.5 579C1980.4 579 1849 710.404 1849 872.5C1849 1034.6 1980.4 1166 2142.5 1166Z" fill="white"/>
</g>
<g filter="url(#filter5_f_385_260)">
<path d="M1947.5 3803C3404.15 3803 4585 2622.15 4585 1165.5C4585 -291.151 3404.15 -1472 1947.5 -1472C490.849 -1472 -690 -291.151 -690 1165.5C-690 2622.15 490.849 3803 1947.5 3803Z" fill="url(#paint1_radial_385_260)" fill-opacity="0.9"/>
</g>
</g>
<path d="M4334 3178.52V2607.51L5680.18 582.053H4485.37V53.332H6361.62V543.806L4959.15 2650.07H6416.83V3178.79H4334V3178.52Z" fill="black"/>
<path d="M6376.7 1635.18C6376.7 1262.95 6431.91 956.169 6541.81 715.376C6651.97 474.583 6795.8 294.931 6973.56 177.228C7151.33 58.9862 7366.54 0 7619.72 0C7986.56 0 8285.27 140.058 8516.09 419.906C8746.92 700.023 8862.47 1098.65 8862.47 1616.06C8862.47 2133.47 8740.19 2547.72 8495.62 2841.84C8280.96 3102.03 7989.53 3231.85 7621.33 3231.85C7253.14 3231.85 6957.67 3103.37 6743.01 2846.15C6498.71 2552.03 6376.43 2148.28 6376.7 1635.18ZM6909.73 1613.9C6909.73 1973.48 6978.14 2243.09 7114.7 2423.01C7251.26 2602.93 7420.67 2692.89 7622.95 2692.89C7824.96 2692.89 7995.18 2603.74 8129.05 2425.44C8262.91 2247.13 8329.71 1973.21 8329.71 1603.4C8329.71 1233.86 8264.53 973.137 8134.16 799.68C8004.07 626.492 7833.31 539.495 7622.68 539.495C7412.05 539.495 7240.48 626.762 7108.24 801.835C6975.72 976.369 6909.73 1247.06 6909.73 1613.9Z" fill="black"/>
<path d="M9007.64 3178.52V53.332H10096.9C10375.4 53.332 10574.4 81.3437 10693.7 137.367C10813.3 193.66 10911.4 290.893 10987.9 429.335C11064.6 567.778 11102.9 733.963 11102.9 927.082C11102.9 1171.65 11044.4 1368.27 10927 1517.75C10810.1 1667.24 10643.6 1760.97 10427.4 1799.22C10538.3 1878.67 10629.9 1965.94 10702.4 2060.48C10774.8 2155.02 10873.7 2324.43 10998.6 2569L11310 3178.79H10692.7L10318 2498.7C10183.3 2252.79 10091.8 2098.99 10043.3 2037.05C9994.79 1975.1 9943.61 1932.54 9889.74 1909.11C9835.61 1885.67 9749.15 1873.82 9629.56 1873.82H9522.9V3178.52H9007.64ZM9523.71 1375H9907.52C10142.1 1375 10291.3 1364.76 10355.2 1344.02C10419.3 1323.29 10471 1281.81 10510.8 1219.32C10550.4 1156.83 10570.4 1073.87 10570.4 969.907C10570.4 865.941 10550.4 790.525 10510.8 730.192C10471 669.859 10417.1 628.38 10348.7 605.486C10300.2 589.864 10160.4 582.053 9928.8 582.053H9523.71V1375Z" fill="black"/>
<path d="M13726 3178.52H13165.2L12940.9 2470.69H11914.9L11703 3178.52H11153L12150.9 53.332H12699L13726 3178.52ZM12774.1 1941.97L12420.2 782.175L12073 1941.97H12774.1Z" fill="black"/>
<defs>
<filter id="filter0_f_385_260" x="-385" y="-684" width="4251" height="4250" filterUnits="userSpaceOnUse" color-interpolation-filters="sRGB">
<feFlood flood-opacity="0" result="BackgroundImageFix"/>
<feBlend mode="normal" in="SourceGraphic" in2="BackgroundImageFix" result="shape"/>
<feGaussianBlur stdDeviation="200" result="effect1_foregroundBlur_385_260"/>
</filter>
<filter id="filter1_f_385_260" x="-273" y="-980" width="4399" height="4400" filterUnits="userSpaceOnUse" color-interpolation-filters="sRGB">
<feFlood flood-opacity="0" result="BackgroundImageFix"/>
<feBlend mode="normal" in="SourceGraphic" in2="BackgroundImageFix" result="shape"/>
<feGaussianBlur stdDeviation="400" result="effect1_foregroundBlur_385_260"/>
</filter>
<filter id="filter2_f_385_260" x="142" y="-519" width="3518" height="3519" filterUnits="userSpaceOnUse" color-interpolation-filters="sRGB">
<feFlood flood-opacity="0" result="BackgroundImageFix"/>
<feBlend mode="normal" in="SourceGraphic" in2="BackgroundImageFix" result="shape"/>
<feGaussianBlur stdDeviation="150" result="effect1_foregroundBlur_385_260"/>
</filter>
<filter id="filter3_f_385_260" x="808" y="-462" width="2670" height="2670" filterUnits="userSpaceOnUse" color-interpolation-filters="sRGB">
<feFlood flood-opacity="0" result="BackgroundImageFix"/>
<feBlend mode="normal" in="SourceGraphic" in2="BackgroundImageFix" result="shape"/>
<feGaussianBlur stdDeviation="300" result="effect1_foregroundBlur_385_260"/>
</filter>
<filter id="filter4_f_385_260" x="1449" y="179" width="1387" height="1387" filterUnits="userSpaceOnUse" color-interpolation-filters="sRGB">
<feFlood flood-opacity="0" result="BackgroundImageFix"/>
<feBlend mode="normal" in="SourceGraphic" in2="BackgroundImageFix" result="shape"/>
<feGaussianBlur stdDeviation="200" result="effect1_foregroundBlur_385_260"/>
</filter>
<filter id="filter5_f_385_260" x="-990" y="-1772" width="5875" height="5875" filterUnits="userSpaceOnUse" color-interpolation-filters="sRGB">
<feFlood flood-opacity="0" result="BackgroundImageFix"/>
<feBlend mode="normal" in="SourceGraphic" in2="BackgroundImageFix" result="shape"/>
<feGaussianBlur stdDeviation="150" result="effect1_foregroundBlur_385_260"/>
</filter>
<radialGradient id="paint0_radial_385_260" cx="0" cy="0" r="1" gradientUnits="userSpaceOnUse" gradientTransform="translate(2147.09 828.748) rotate(128.228) scale(2755.49 2755.27)">
<stop offset="0.286458" stop-color="#387AFA"/>
<stop offset="0.647782" stop-color="#387AFA" stop-opacity="0"/>
</radialGradient>
<radialGradient id="paint1_radial_385_260" cx="0" cy="0" r="1" gradientUnits="userSpaceOnUse" gradientTransform="translate(1947.5 1165.5) rotate(90) scale(2637.5)">
<stop offset="0.598958" stop-opacity="0"/>
<stop offset="0.671875"/>
<stop offset="0.734375" stop-opacity="0"/>
</radialGradient>
</defs>
</svg>
